{
  "accessors": [
    {
      "bufferView": 2,
      "componentType": 5126,
      "count": 478,
      "max": [
        51.08203125,
        109.090087890625,
        -339.0399169921875
      ],
      "min": [
        -83.676513671875,
        -72.099609375,
        -436.4833984375
      ],
      "type": "VEC3"
    },
    {
      "bufferView": 2,
      "byteOffset": 5736,
      "componentType": 5126,
      "count": 478,
      "max": [
        0.9930725693702698,
        0.9596750736236572,
        0.9714595675468445
      ],
      "min": [
        -0.9979494214057922,
        -0.9573157429695129,
        -0.6659899353981018
      ],
      "type": "VEC3"
    },
    {
      "bufferView": 1,
      "componentType": 5126,
      "count": 478,
      "max": [
        210.14794921875,
        44.540283203125
      ],
      "min": [
        -210.12744140625,
        -31.2864990234375
      ],
      "type": "VEC2"
    },
    {
      "bufferView": 0,
      "componentType": 5125,
      "count": 2556,
      "type": "SCALAR"
    },
    {
      "bufferView": 2,
      "byteOffset": 11472,
      "componentType": 5126,
      "count": 308,
      "max": [
        46.4580078125,
        103.083984375,
        -329.5760498046875
      ],
      "min": [
        -80.6201171875,
        -65.357666015625,
        -427.2122802734375
      ],
      "type": "VEC3"
    },
    {
      "bufferView": 2,
      "byteOffset": 15168,
      "componentType": 5126,
      "count": 308,
      "max": [
        0.9977592825889587,
        0.9004669785499573,
        0.14717376232147217
      ],
      "min": [
        -0.90541011095047,
        -0.8774563074111938,
        -0.7468040585517883
      ],
      "type": "VEC3"
    },
    {
      "bufferView": 1,
      "byteOffset": 3824,
      "componentType": 5126,
      "count": 308,
      "max": [
        289.5623779296875,
        -90.6463623046875
      ],
      "min": [
        -185.0372314453125,
        -122.759521484375
      ],
      "type": "VEC2"
    },
    {
      "bufferView": 0,
      "byteOffset": 10224,
      "componentType": 5125,
      "count": 1515,
      "type": "SCALAR"
    },
    {
      "bufferView": 2,
      "byteOffset": 18864,
      "componentType": 5126,
      "count": 805,
      "max": [
        49.21044921875,
        31.787353515625,
        -336.95947265625
      ],
      "min": [
        44.69384765625,
        21.61669921875,
        -347.207763671875
      ],
      "type": "VEC3"
    },
    {
      "bufferView": 2,
      "byteOffset": 28524,
      "componentType": 5126,
      "count": 805,
      "max": [
        0.9999762773513794,
        0.9996334910392761,
        1.0
      ],
      "min": [
        -1.0,
        -0.9996439218521118,
        -1.0
      ],
      "type": "VEC3"
    },
    {
      "bufferView": 1,
      "byteOffset": 6288,
      "componentType": 5126,
      "count": 805,
      "max": [
        0.9735000133514404,
        0.9702000021934509
      ],
      "min": [
        0.027799999341368675,
        0.03280000016093254
      ],
      "type": "VEC2"
    },
    {
      "bufferView": 0,
      "byteOffset": 16284,
      "componentType": 5125,
      "count": 3738,
      "type": "SCALAR"
    },
    {
      "bufferView": 2,
      "byteOffset": 38184,
      "componentType": 5126,
      "count": 6321,
      "max": [
        174.13623046875,
        237.247314453125,
        337.8258056640625
      ],
      "min": [
        -84.141845703125,
        -199.787841796875,
        -384.4300537109375
      ],
      "type": "VEC3"
    },
    {
      "bufferView": 2,
      "byteOffset": 114036,
      "componentType": 5126,
      "count": 6321,
      "max": [
        0.9999921917915344,
        0.9999900460243225,
        0.9919840097427368
      ],
      "min": [
        -0.47578194737434387,
        -0.9998680949211121,
        -0.8540502786636353
      ],
      "type": "VEC3"
    },
    {
      "bufferView": 1,
      "byteOffset": 12728,
      "componentType": 5126,
      "count": 6321,
      "max": [
        368.43096923828125,
        367.9906005859375
      ],
      "min": [
        -131.25,
        -645.0711669921875
      ],
      "type": "VEC2"
    },
    {
      "bufferView": 0,
      "byteOffset": 31236,
      "componentType": 5125,
      "count": 36756,
      "type": "SCALAR"
    },
    {
      "bufferView": 2,
      "byteOffset": 189888,
      "componentType": 5126,
      "count": 762,
      "max": [
        179.381591796875,
        59.12353515625,
        335.04266357421875
      ],
      "min": [
        41.1650390625,
        13.114501953125,
        -332.3515625
      ],
      "type": "VEC3"
    },
    {
      "bufferView": 2,
      "byteOffset": 199032,
      "componentType": 5126,
      "count": 762,
      "max": [
        0.9982673525810242,
        0.9999507665634155,
        0.4966202676296234
      ],
      "min": [
        -0.9992011785507202,
        -0.661438524723053,
        -0.6673456430435181
      ],
      "type": "VEC3"
    },
    {
      "bufferView": 1,
      "byteOffset": 63296,
      "componentType": 5126,
      "count": 762,
      "max": [
        7.2479248046875e-05,
        335.1890869140625
      ],
      "min": [
        -57.99990463256836,
        -335.1890869140625
      ],
      "type": "VEC2"
    },
    {
      "bufferView": 0,
      "byteOffset": 178260,
      "componentType": 5125,
      "count": 4092,
      "type": "SCALAR"
    },
    {
      "bufferView": 2,
      "byteOffset": 208176,
      "componentType": 5126,
      "count": 7258,
      "max": [
        38.323486328125,
        236.624267578125,
        350.10430908203125
      ],
      "min": [
        -170.6688232421875,
        -215.172119140625,
        -402.5335693359375
      ],
      "type": "VEC3"
    },
    {
      "bufferView": 2,
      "byteOffset": 295272,
      "componentType": 5126,
      "count": 7258,
      "max": [
        0.9262092709541321,
        0.9999361634254456,
        0.9919882416725159
      ],
      "min": [
        -0.9998558163642883,
        -0.9998679161071777,
        -0.9636767506599426
      ],
      "type": "VEC3"
    },
    {
      "bufferView": 1,
      "byteOffset": 69392,
      "componentType": 5126,
      "count": 7258,
      "max": [
        450.3863525390625,
        320.239013671875
      ],
      "min": [
        -150.128662109375,
        -320.2796630859375
      ],
      "type": "VEC2"
    },
    {
      "bufferView": 0,
      "byteOffset": 194628,
      "componentType": 5125,
      "count": 42438,
      "type": "SCALAR"
    },
    {
      "bufferView": 2,
      "byteOffset": 382368,
      "componentType": 5126,
      "count": 6729,
      "max": [
        265.080810546875,
        286.157958984375,
        242.49969482421875
      ],
      "min": [
        -209.4300537109375,
        -324.778564453125,
        -323.188720703125
      ],
      "type": "VEC3"
    },
    {
      "bufferView": 2,
      "byteOffset": 463116,
      "componentType": 5126,
      "count": 6729,
      "max": [
        0.9992257356643677,
        0.9999746084213257,
        0.9919886589050293
      ],
      "min": [
        -0.9997637271881104,
        -0.999972939491272,
        -0.998584508895874
      ],
      "type": "VEC3"
    },
    {
      "bufferView": 1,
      "byteOffset": 127456,
      "componentType": 5126,
      "count": 6729,
      "max": [
        142.10540771484375,
        265.7939453125
      ],
      "min": [
        -142.10540771484375,
        -295.796142578125
      ],
      "type": "VEC2"
    },
    {
      "bufferView": 0,
      "byteOffset": 364380,
      "componentType": 5125,
      "count": 38514,
      "type": "SCALAR"
    },
    {
      "bufferView": 2,
      "byteOffset": 543864,
      "componentType": 5126,
      "count": 158,
      "max": [
        253.887939453125,
        287.906494140625,
        242.84417724609375
      ],
      "min": [
        -209.0809326171875,
        -329.361572265625,
        34.6497802734375
      ],
      "type": "VEC3"
    },
    {
      "bufferView": 2,
      "byteOffset": 545760,
      "componentType": 5126,
      "count": 158,
      "max": [
        0.7620397806167603,
        0.9990630149841309,
        0.23054562509059906
      ],
      "min": [
        -0.03665510192513466,
        -0.9697885513305664,
        -0.5142031311988831
      ],
      "type": "VEC3"
    },
    {
      "bufferView": 1,
      "byteOffset": 181288,
      "componentType": 5126,
      "count": 158,
      "max": [
        22.3712158203125,
        65.135498046875
      ],
      "min": [
        -22.3712158203125,
        -65.135498046875
      ],
      "type": "VEC2"
    },
    {
      "bufferView": 0,
      "byteOffset": 518436,
      "componentType": 5125,
      "count": 726,
      "type": "SCALAR"
    },
    {
      "bufferView": 2,
      "byteOffset": 547656,
      "componentType": 5126,
      "count": 1610,
      "max": [
        215.936279296875,
        284.109375,
        199.54083251953125
      ],
      "min": [
        -185.430908203125,
        -330.00341796875,
        73.3038330078125
      ],
      "type": "VEC3"
    },
    {
      "bufferView": 2,
      "byteOffset": 566976,
      "componentType": 5126,
      "count": 1610,
      "max": [
        0.9999761581420898,
        0.999642014503479,
        1.0
      ],
      "min": [
        -1.0,
        -0.9996363520622253,
        -1.0
      ],
      "type": "VEC3"
    },
    {
      "bufferView": 1,
      "byteOffset": 182552,
      "componentType": 5126,
      "count": 1610,
      "max": [
        0.9735000133514404,
        0.9702000021934509
      ],
      "min": [
        0.027799999341368675,
        0.03280000016093254
      ],
      "type": "VEC2"
    },
    {
      "bufferView": 0,
      "byteOffset": 521340,
      "componentType": 5125,
      "count": 7476,
      "type": "SCALAR"
    },
    {
      "bufferView": 2,
      "byteOffset": 586296,
      "componentType": 5126,
      "count": 798,
      "max": [
        324.396240234375,
        282.1904296875,
        318.468994140625
      ],
      "min": [
        -193.80029296875,
        -321.999267578125,
        83.1318359375
      ],
      "type": "VEC3"
    },
    {
      "bufferView": 2,
      "byteOffset": 595872,
      "componentType": 5126,
      "count": 798,
      "max": [
        0.9994651675224304,
        0.9999133944511414,
        0.8431548476219177
      ],
      "min": [
        -0.9993765354156494,
        -0.9996437430381775,
        -0.8709609508514404
      ],
      "type": "VEC3"
    },
    {
      "bufferView": 1,
      "byteOffset": 195432,
      "componentType": 5126,
      "count": 798,
      "max": [
        135.501708984375,
        37.499847412109375
      ],
      "min": [
        -135.501708984375,
        -37.499847412109375
      ],
      "type": "VEC2"
    },
    {
      "bufferView": 0,
      "byteOffset": 551244,
      "componentType": 5125,
      "count": 4314,
      "type": "SCALAR"
    },
    {
      "bufferView": 2,
      "byteOffset": 605448,
      "componentType": 5126,
      "count": 3220,
      "max": [
        299.711181640625,
        281.8056640625,
        302.05584716796875
      ],
      "min": [
        -176.603271484375,
        -318.205078125,
        111.375
      ],
      "type": "VEC3"
    },
    {
      "bufferView": 2,
      "byteOffset": 644088,
      "componentType": 5126,
      "count": 3220,
      "max": [
        0.9999759197235107,
        0.9996513724327087,
        1.0
      ],
      "min": [
        -1.0,
        -0.9996408820152283,
        -1.0
      ],
      "type": "VEC3"
    },
    {
      "bufferView": 1,
      "byteOffset": 201816,
      "componentType": 5126,
      "count": 3220,
      "max": [
        0.9735000133514404,
        0.9702000021934509
      ],
      "min": [
        0.027799999341368675,
        0.03280000016093254
      ],
      "type": "VEC2"
    },
    {
      "bufferView": 0,
      "byteOffset": 568500,
      "componentType": 5125,
      "count": 14952,
      "type": "SCALAR"
    },
    {
      "bufferView": 2,
      "byteOffset": 682728,
      "componentType": 5126,
      "count": 24,
      "max": [
        45.9560546875,
        30.069580078125,
        -340.7412109375
      ],
      "min": [
        43.05712890625,
        16.02880859375,
        -346.3941650390625
      ],
      "type": "VEC3"
    },
    {
      "bufferView": 2,
      "byteOffset": 683016,
      "componentType": 5126,
      "count": 24,
      "max": [
        0.9974757432937622,
        0.15158899128437042,
        0.14443780481815338
      ],
      "min": [
        -0.9974754452705383,
        -0.15344522893428802,
        -0.14920149743556976
      ],
      "type": "VEC3"
    },
    {
      "bufferView": 1,
      "byteOffset": 227576,
      "componentType": 5126,
      "count": 24,
      "max": [
        1.0,
        1.000030517578125
      ],
      "min": [
        0.0,
        0.0
      ],
      "type": "VEC2"
    },
    {
      "bufferView": 0,
      "byteOffset": 628308,
      "componentType": 5125,
      "count": 60,
      "type": "SCALAR"
    },
    {
      "bufferView": 2,
      "byteOffset": 683304,
      "componentType": 5126,
      "count": 109,
      "max": [
        92.84033203125,
        -48.931884765625,
        -194.2801513671875
      ],
      "min": [
        68.700439453125,
        -97.003662109375,
        -252.1392822265625
      ],
      "type": "VEC3"
    },
    {
      "bufferView": 2,
      "byteOffset": 684612,
      "componentType": 5126,
      "count": 109,
      "max": [
        0.958932638168335,
        -0.013508245348930359,
        -0.20867055654525757
      ],
      "min": [
        0.9001227617263794,
        -0.27684080600738525,
        -0.4094372093677521
      ],
      "type": "VEC3"
    },
    {
      "bufferView": 1,
      "byteOffset": 227768,
      "componentType": 5126,
      "count": 109,
      "max": [
        1.000000238418579,
        0.9999990463256836
      ],
      "min": [
        -1.7881393432617188e-07,
        -6.817281246185303e-07
      ],
      "type": "VEC2"
    },
    {
      "bufferView": 0,
      "byteOffset": 628548,
      "componentType": 5125,
      "count": 462,
      "type": "SCALAR"
    }
  ],
  "asset": {
    "extras": {
      "author": "NIXO (https://sketchfab.com/nixo_design)",
      "license": "CC-BY-4.0 (http://creativecommons.org/licenses/by/4.0/)",
      "source": "https://sketchfab.com/3d-models/free-shirt-cdd67020a63d47ea886f612b8d25f39e",
      "title": "(FREE) Shirt"
    },
    "generator": "Sketchfab-15.19.0",
    "version": "2.0"
  },
  "bufferViews": [
    {
      "buffer": 0,
      "byteLength": 630396,
      "name": "floatBufferViews",
      "target": 34963
    },
    {
      "buffer": 0,
      "byteLength": 228640,
      "byteOffset": 630396,
      "byteStride": 8,
      "name": "floatBufferViews",
      "target": 34962
    },
    {
      "buffer": 0,
      "byteLength": 685920,
      "byteOffset": 859036,
      "byteStride": 12,
      "name": "floatBufferViews",
      "target": 34962
    }
  ],
  "buffers": [
    {
      "byteLength": 1544956,
      "uri": "scene.bin"
    }
  ],
  "images": [
    {
      "uri": "textures/PT_FABRIC_FRONT_2976_baseColor.png"
    },
    {
      "uri": "textures/PT_FABRIC_FRONT_27773_baseColor.png"
    }
  ],
  "materials": [
    {
      "doubleSided": true,
      "name": "Collar_FRONT_2889",
      "pbrMetallicRoughness": {
        "baseColorFactor": [
          0.788235,
          0.862745,
          0.909804,
          1.0
        ],
        "metallicFactor": 0.0,
        "roughnessFactor": 0.463686
      }
    },
    {
      "doubleSided": true,
      "name": "Collar_Stand_FRONT_2884",
      "pbrMetallicRoughness": {
        "baseColorFactor": [
          0.788235,
          0.862745,
          0.909804,
          1.0
        ],
        "metallicFactor": 0.0,
        "roughnessFactor": 0.463686
      }
    },
    {
      "doubleSided": true,
      "name": "Material658738",
      "pbrMetallicRoughness": {
        "metallicFactor": 0.0,
        "roughnessFactor": 0.463686
      }
    },
    {
      "doubleSided": true,
      "name": "Body_F_FRONT_2894",
      "pbrMetallicRoughness": {
        "baseColorFactor": [
          0.788235,
          0.862745,
          0.909804,
          1.0
        ],
        "metallicFactor": 0.0,
        "roughnessFactor": 0.463686
      }
    },
    {
      "doubleSided": true,
      "name": "Bodyr_F_Placket_FRONT_2899",
      "pbrMetallicRoughness": {
        "baseColorFactor": [
          0.788235,
          0.862745,
          0.909804,
          1.0
        ],
        "metallicFactor": 0.0,
        "roughnessFactor": 0.463686
      }
    },
    {
      "doubleSided": true,
      "name": "Body_B_FRONT_2904",
      "pbrMetallicRoughness": {
        "baseColorFactor": [
          0.788235,
          0.862745,
          0.909804,
          1.0
        ],
        "metallicFactor": 0.0,
        "roughnessFactor": 0.463686
      }
    },
    {
      "doubleSided": true,
      "name": "Sleeves_FRONT_2909",
      "pbrMetallicRoughness": {
        "baseColorFactor": [
          0.788235,
          0.862745,
          0.909804,
          1.0
        ],
        "metallicFactor": 0.0,
        "roughnessFactor": 0.463686
      }
    },
    {
      "doubleSided": true,
      "name": "Sleeve_Placket_FRONT_2914",
      "pbrMetallicRoughness": {
        "baseColorFactor": [
          0.788235,
          0.862745,
          0.909804,
          1.0
        ],
        "metallicFactor": 0.0,
        "roughnessFactor": 0.463686
      }
    },
    {
      "doubleSided": true,
      "name": "Material693271",
      "pbrMetallicRoughness": {
        "metallicFactor": 0.0,
        "roughnessFactor": 0.463686
      }
    },
    {
      "doubleSided": true,
      "name": "Cuffs_FRONT_2919",
      "pbrMetallicRoughness": {
        "baseColorFactor": [
          0.788235,
          0.862745,
          0.909804,
          1.0
        ],
        "metallicFactor": 0.0,
        "roughnessFactor": 0.463686
      }
    },
    {
      "doubleSided": true,
      "name": "Material707870",
      "pbrMetallicRoughness": {
        "metallicFactor": 0.0,
        "roughnessFactor": 0.463686
      }
    },
    {
      "alphaMode": "BLEND",
      "doubleSided": true,
      "name": "PT_FABRIC_FRONT_2976",
      "pbrMetallicRoughness": {
        "baseColorTexture": {
          "index": 0
        },
        "metallicFactor": 0.0,
        "roughnessFactor": 0.463686
      }
    },
    {
      "alphaMode": "BLEND",
      "doubleSided": true,
      "name": "PT_FABRIC_FRONT_27773",
      "pbrMetallicRoughness": {
        "baseColorTexture": {
          "index": 1
        },
        "metallicFactor": 0.0,
        "roughnessFactor": 0.0859281
      }
    }
  ],
  "meshes": [
    {
      "name": "Object_0",
      "primitives": [
        {
          "attributes": {
            "NORMAL": 1,
            "POSITION": 0,
            "TEXCOORD_0": 2
          },
          "indices": 3,
          "material": 0,
          "mode": 4
        }
      ]
    },
    {
      "name": "Object_1",
      "primitives": [
        {
          "attributes": {
            "NORMAL": 5,
            "POSITION": 4,
            "TEXCOORD_0": 6
          },
          "indices": 7,
          "material": 1,
          "mode": 4
        }
      ]
    },
    {
      "name": "Object_2",
      "primitives": [
        {
          "attributes": {
            "NORMAL": 9,
            "POSITION": 8,
            "TEXCOORD_0": 10
          },
          "indices": 11,
          "material": 2,
          "mode": 4
        }
      ]
    },
    {
      "name": "Object_3",
      "primitives": [
        {
          "attributes": {
            "NORMAL": 13,
            "POSITION": 12,
            "TEXCOORD_0": 14
          },
          "indices": 15,
          "material": 3,
          "mode": 4
        }
      ]
    },
    {
      "name": "Object_4",
      "primitives": [
        {
          "attributes": {
            "NORMAL": 17,
            "POSITION": 16,
            "TEXCOORD_0": 18
          },
          "indices": 19,
          "material": 4,
          "mode": 4
        }
      ]
    },
    {
      "name": "Object_5",
      "primitives": [
        {
          "attributes": {
            "NORMAL": 21,
            "POSITION": 20,
            "TEXCOORD_0": 22
          },
          "indices": 23,
          "material": 5,
          "mode": 4
        }
      ]
    },
    {
      "name": "Object_6",
      "primitives": [
        {
          "attributes": {
            "NORMAL": 25,
            "POSITION": 24,
            "TEXCOORD_0": 26
          },
          "indices": 27,
          "material": 6,
          "mode": 4
        }
      ]
    },
    {
      "name": "Object_7",
      "primitives": [
        {
          "attributes": {
            "NORMAL": 29,
            "POSITION": 28,
            "TEXCOORD_0": 30
          },
          "indices": 31,
          "material": 7,
          "mode": 4
        }
      ]
    },
    {
      "name": "Object_8",
      "primitives": [
        {
          "attributes": {
            "NORMAL": 33,
            "POSITION": 32,
            "TEXCOORD_0": 34
          },
          "indices": 35,
          "material": 8,
          "mode": 4
        }
      ]
    },
    {
      "name": "Object_9",
      "primitives": [
        {
          "attributes": {
            "NORMAL": 37,
            "POSITION": 36,
            "TEXCOORD_0": 38
          },
          "indices": 39,
          "material": 9,
          "mode": 4
        }
      ]
    },
    {
      "name": "Object_10",
      "primitives": [
        {
          "attributes": {
            "NORMAL": 41,
            "POSITION": 40,
            "TEXCOORD_0": 42
          },
          "indices": 43,
          "material": 10,
          "mode": 4
        }
      ]
    },
    {
      "name": "Object_11",
      "primitives": [
        {
          "attributes": {
            "NORMAL": 45,
            "POSITION": 44,
            "TEXCOORD_0": 46
          },
          "indices": 47,
          "material": 11,
          "mode": 4
        }
      ]
    },
    {
      "name": "Object_12",
      "primitives": [
        {
          "attributes": {
            "NORMAL": 49,
            "POSITION": 48,
            "TEXCOORD_0": 50
          },
          "indices": 51,
          "material": 12,
          "mode": 4
        }
      ]
    }
  ],
  "nodes": [
    {
      "children": [
        1
      ],
      "matrix": [
        1.0,
        0.0,
        0.0,
        0.0,
        0.0,
        2.220446049250313e-16,
        -1.0,
        0.0,
        0.0,
        1.0,
        2.220446049250313e-16,
        0.0,
        0.0,
        0.0,
        0.0,
        1.0
      ],
      "name": "Sketchfab_model"
    },
    {
      "children": [
        2
      ],
      "name": "root"
    },
    {
      "children": [
        3
      ],
      "matrix": [
        1.0,
        0.0,
        0.0,
        0.0,
        0.0,
        2.220446049250313e-16,
        1.0,
        0.0,
        0.0,
        -1.0,
        2.220446049250313e-16,
        0.0,
        0.0,
        0.0,
        0.0,
        1.0
      ],
      "name": "GLTF_SceneRootNode"
    },
    {
      "children": [
        4,
        5,
        6,
        7,
        8,
        9,
        10,
        11,
        12,
        13,
        14,
        15,
        16
      ],
      "matrix": [
        0.009999999776482582,
        0.0,
        0.0,
        0.0,
        0.0,
        8.429369291789587e-10,
        0.009999999776482547,
        0.0,
        0.0,
        -0.009999999776482547,
        8.429369291789587e-10,
        0.0,
        0.0,
        0.0,
        0.0,
        1.0
      ],
      "name": "new shirt_0"
    },
    {
      "mesh": 0,
      "name": "Object_4"
    },
    {
      "mesh": 1,
      "name": "Object_5"
    },
    {
      "mesh": 2,
      "name": "Object_6"
    },
    {
      "mesh": 3,
      "name": "Object_7"
    },
    {
      "mesh": 4,
      "name": "Object_8"
    },
    {
      "mesh": 5,
      "name": "Object_9"
    },
    {
      "mesh": 6,
      "name": "Object_10"
    },
    {
      "mesh": 7,
      "name": "Object_11"
    },
    {
      "mesh": 8,
      "name": "Object_12"
    },
    {
      "mesh": 9,
      "name": "Object_13"
    },
    {
      "mesh": 10,
      "name": "Object_14"
    },
    {
      "mesh": 11,
      "name": "Object_15"
    },
    {
      "mesh": 12,
      "name": "Object_16"
    }
  ],
  "samplers": [
    {
      "magFilter": 9729,
      "minFilter": 9987,
      "wrapS": 10497,
      "wrapT": 10497
    }
  ],
  "scene": 0,
  "scenes": [
    {
      "name": "Sketchfab_Scene",
      "nodes": [
        0
      ]
    }
  ],
  "textures": [
    {
      "sampler": 0,
      "source": 0
    },
    {
      "sampler": 0,
      "source": 1
    }
  ]
}
